<svg fill="currentcolor"
  xmlns="http://www.w3.org/2000/svg" viewBox="0 0 1600 1600" height="1600" width="1600" version="1.1">
  <g transform="matrix(1.3333333,0,0,-1.3333333,0,1600)">
    <g transform="translate(605.041,365.6214)">
      <path d="m 0,0 c -124.59,0 -225.589,97.701 -225.589,218.221 0,120.519 100.999,218.22 225.589,218.22 124.59,0 225.591,-97.701 225.591,-218.22 C 225.591,97.701 124.59,0 0,0 m -514.041,217.383 c 569.238,-589.51 1017.932,0 1017.932,0 -495.572,595.99 -1017.932,0 -1017.932,0" />
    </g>
    <g transform="translate(607.0029,705.2302)">
      <path d="m 0,0 c -69.661,0 -126.134,-55.08 -126.134,-123.025 0,-67.944 56.473,-123.024 126.134,-123.024 69.662,0 126.134,55.08 126.134,123.024 C 126.134,-55.08 69.662,0 0,0" />
    </g>
  </g>
</svg>
